<mxfile host="app.diagrams.net" modified="2021-01-16T19:44:18.397Z" agent="5.0 (Windows NT 10.0; Win64; x64) AppleWebKit/537.36 (KHTML, like Gecko) Chrome/87.0.4280.141 Safari/537.36" etag="ys6_lirP6qVQz4Uf67iH" version="14.2.4" type="github" pages="2">
  <diagram id="C5RBs43oDa-KdzZeNtuy" name="dijagram_klasa_arhitekture_connect4">
    <mxGraphModel dx="682" dy="479" grid="1" gridSize="10" guides="1" tooltips="1" connect="1" arrows="1" fold="1" page="1" pageScale="1" pageWidth="827" pageHeight="1169" math="0" shadow="0">
      <root>
        <mxCell id="WIyWlLk6GJQsqaUBKTNV-0" />
        <mxCell id="WIyWlLk6GJQsqaUBKTNV-1" parent="WIyWlLk6GJQsqaUBKTNV-0" />
        <mxCell id="chVFEnRXdNoj81ztgezE-0" value="«model»&lt;br&gt;&lt;b&gt;Zeton&lt;br&gt;&lt;/b&gt;" style="html=1;" vertex="1" parent="WIyWlLk6GJQsqaUBKTNV-1">
          <mxGeometry x="75" y="440" width="110" height="50" as="geometry" />
        </mxCell>
        <mxCell id="chVFEnRXdNoj81ztgezE-1" value="«view»&lt;br&gt;&lt;b&gt;Prikaz&lt;/b&gt;" style="html=1;" vertex="1" parent="WIyWlLk6GJQsqaUBKTNV-1">
          <mxGeometry x="585" y="590" width="110" height="50" as="geometry" />
        </mxCell>
        <mxCell id="chVFEnRXdNoj81ztgezE-2" value="«controller»&lt;br&gt;&lt;b&gt;Igra&lt;/b&gt;" style="html=1;" vertex="1" parent="WIyWlLk6GJQsqaUBKTNV-1">
          <mxGeometry x="345" y="590" width="110" height="50" as="geometry" />
        </mxCell>
        <mxCell id="chVFEnRXdNoj81ztgezE-3" value="«model»&lt;br&gt;&lt;b&gt;Zetoni&lt;/b&gt;" style="html=1;" vertex="1" parent="WIyWlLk6GJQsqaUBKTNV-1">
          <mxGeometry x="345" y="440" width="110" height="50" as="geometry" />
        </mxCell>
        <mxCell id="chVFEnRXdNoj81ztgezE-4" value="«model»&lt;br&gt;&lt;b&gt;Igrac&lt;/b&gt;" style="html=1;" vertex="1" parent="WIyWlLk6GJQsqaUBKTNV-1">
          <mxGeometry x="75" y="590" width="110" height="50" as="geometry" />
        </mxCell>
        <mxCell id="chVFEnRXdNoj81ztgezE-5" value="«model»&lt;br&gt;&lt;b&gt;Igrac1&lt;/b&gt;" style="html=1;" vertex="1" parent="WIyWlLk6GJQsqaUBKTNV-1">
          <mxGeometry x="20" y="740" width="110" height="50" as="geometry" />
        </mxCell>
        <mxCell id="chVFEnRXdNoj81ztgezE-6" value="«model»&lt;br&gt;&lt;b&gt;Igrac2&lt;/b&gt;" style="html=1;" vertex="1" parent="WIyWlLk6GJQsqaUBKTNV-1">
          <mxGeometry x="145" y="740" width="110" height="50" as="geometry" />
        </mxCell>
        <mxCell id="chVFEnRXdNoj81ztgezE-7" value="" style="endArrow=none;html=1;edgeStyle=orthogonalEdgeStyle;" edge="1" parent="WIyWlLk6GJQsqaUBKTNV-1">
          <mxGeometry relative="1" as="geometry">
            <mxPoint x="455.0000000000002" y="614.5" as="sourcePoint" />
            <mxPoint x="585.0000000000002" y="615" as="targetPoint" />
            <Array as="points">
              <mxPoint x="555" y="615" />
              <mxPoint x="555" y="615" />
            </Array>
          </mxGeometry>
        </mxCell>
        <mxCell id="chVFEnRXdNoj81ztgezE-8" value="" style="endArrow=none;html=1;edgeStyle=orthogonalEdgeStyle;" edge="1" parent="WIyWlLk6GJQsqaUBKTNV-1">
          <mxGeometry relative="1" as="geometry">
            <mxPoint x="185" y="614.5" as="sourcePoint" />
            <mxPoint x="345.0000000000002" y="614.5" as="targetPoint" />
            <Array as="points">
              <mxPoint x="225" y="615" />
              <mxPoint x="225" y="615" />
            </Array>
          </mxGeometry>
        </mxCell>
        <mxCell id="chVFEnRXdNoj81ztgezE-9" value="" style="endArrow=none;html=1;edgeStyle=orthogonalEdgeStyle;" edge="1" parent="WIyWlLk6GJQsqaUBKTNV-1">
          <mxGeometry relative="1" as="geometry">
            <mxPoint x="185" y="470" as="sourcePoint" />
            <mxPoint x="345.0000000000002" y="470" as="targetPoint" />
            <Array as="points">
              <mxPoint x="225" y="470.5" />
              <mxPoint x="225" y="470.5" />
            </Array>
          </mxGeometry>
        </mxCell>
        <mxCell id="chVFEnRXdNoj81ztgezE-10" value="" style="endArrow=none;html=1;edgeStyle=orthogonalEdgeStyle;exitX=0.5;exitY=1;exitDx=0;exitDy=0;entryX=0.5;entryY=0;entryDx=0;entryDy=0;" edge="1" parent="WIyWlLk6GJQsqaUBKTNV-1" source="chVFEnRXdNoj81ztgezE-3" target="chVFEnRXdNoj81ztgezE-2">
          <mxGeometry relative="1" as="geometry">
            <mxPoint x="245" y="540" as="sourcePoint" />
            <mxPoint x="405" y="540" as="targetPoint" />
            <Array as="points">
              <mxPoint x="400" y="560" />
              <mxPoint x="400" y="560" />
            </Array>
          </mxGeometry>
        </mxCell>
        <mxCell id="chVFEnRXdNoj81ztgezE-11" value="" style="endArrow=none;html=1;edgeStyle=orthogonalEdgeStyle;exitX=0.5;exitY=1;exitDx=0;exitDy=0;entryX=0.5;entryY=0;entryDx=0;entryDy=0;" edge="1" parent="WIyWlLk6GJQsqaUBKTNV-1">
          <mxGeometry relative="1" as="geometry">
            <mxPoint x="129.5" y="490" as="sourcePoint" />
            <mxPoint x="129.5" y="590" as="targetPoint" />
            <Array as="points">
              <mxPoint x="129.5" y="560" />
              <mxPoint x="129.5" y="560" />
            </Array>
          </mxGeometry>
        </mxCell>
        <mxCell id="chVFEnRXdNoj81ztgezE-12" value="" style="endArrow=block;endSize=16;endFill=0;html=1;exitX=0.5;exitY=0;exitDx=0;exitDy=0;entryX=0.25;entryY=1;entryDx=0;entryDy=0;" edge="1" parent="WIyWlLk6GJQsqaUBKTNV-1" source="chVFEnRXdNoj81ztgezE-5" target="chVFEnRXdNoj81ztgezE-4">
          <mxGeometry width="160" relative="1" as="geometry">
            <mxPoint x="70" y="740" as="sourcePoint" />
            <mxPoint x="55" y="650" as="targetPoint" />
          </mxGeometry>
        </mxCell>
        <mxCell id="chVFEnRXdNoj81ztgezE-13" value="" style="endArrow=block;endSize=16;endFill=0;html=1;entryX=0.75;entryY=1;entryDx=0;entryDy=0;exitX=0.5;exitY=0;exitDx=0;exitDy=0;" edge="1" parent="WIyWlLk6GJQsqaUBKTNV-1" source="chVFEnRXdNoj81ztgezE-6" target="chVFEnRXdNoj81ztgezE-4">
          <mxGeometry width="160" relative="1" as="geometry">
            <mxPoint x="105" y="700" as="sourcePoint" />
            <mxPoint x="265" y="700" as="targetPoint" />
          </mxGeometry>
        </mxCell>
      </root>
    </mxGraphModel>
  </diagram>
  <diagram id="8QxIIBPZ0nl9LYISJe5e" name="dijagram_klasa_modela">
    <mxGraphModel dx="682" dy="479" grid="1" gridSize="10" guides="1" tooltips="1" connect="1" arrows="1" fold="1" page="1" pageScale="1" pageWidth="827" pageHeight="1169" math="0" shadow="0">
      <root>
        <mxCell id="XmXdTKQC1dKj6xEwD_Ra-0" />
        <mxCell id="XmXdTKQC1dKj6xEwD_Ra-1" parent="XmXdTKQC1dKj6xEwD_Ra-0" />
        <mxCell id="jaVBIwO1sxlZ8fuY0cuF-9" value="Zeton" style="swimlane;fontStyle=1;align=center;verticalAlign=top;childLayout=stackLayout;horizontal=1;startSize=26;horizontalStack=0;resizeParent=1;resizeParentMax=0;resizeLast=0;collapsible=1;marginBottom=0;rounded=0;shadow=0;fillColor=none;html=0;" vertex="1" parent="XmXdTKQC1dKj6xEwD_Ra-1">
          <mxGeometry x="30" y="50" width="160" height="90" as="geometry">
            <mxRectangle x="30" y="50" width="70" height="26" as="alternateBounds" />
          </mxGeometry>
        </mxCell>
        <mxCell id="jaVBIwO1sxlZ8fuY0cuF-10" value="__zeton_boja" style="text;strokeColor=none;fillColor=none;align=left;verticalAlign=top;spacingLeft=4;spacingRight=4;overflow=hidden;rotatable=0;points=[[0,0.5],[1,0.5]];portConstraint=eastwest;" vertex="1" parent="jaVBIwO1sxlZ8fuY0cuF-9">
          <mxGeometry y="26" width="160" height="26" as="geometry" />
        </mxCell>
        <mxCell id="jaVBIwO1sxlZ8fuY0cuF-11" value="" style="line;strokeWidth=1;fillColor=none;align=left;verticalAlign=middle;spacingTop=-1;spacingLeft=3;spacingRight=3;rotatable=0;labelPosition=right;points=[];portConstraint=eastwest;" vertex="1" parent="jaVBIwO1sxlZ8fuY0cuF-9">
          <mxGeometry y="52" width="160" height="8" as="geometry" />
        </mxCell>
        <object label="boje()" method="__init__()" id="jaVBIwO1sxlZ8fuY0cuF-12">
          <mxCell style="text;strokeColor=none;fillColor=none;align=left;verticalAlign=top;spacingLeft=4;spacingRight=4;overflow=hidden;rotatable=0;points=[[0,0.5],[1,0.5]];portConstraint=eastwest;" vertex="1" parent="jaVBIwO1sxlZ8fuY0cuF-9">
            <mxGeometry y="60" width="160" height="30" as="geometry" />
          </mxCell>
        </object>
      </root>
    </mxGraphModel>
  </diagram>
</mxfile>
